<mxfile host="app.diagrams.net" agent="Mozilla/5.0 (X11; Ubuntu; Linux x86_64; rv:129.0) Gecko/20100101 Firefox/129.0" version="24.7.6">
  <diagram name="Page-1" id="ch9AODeON_c2sw5LWOqq">
    <mxGraphModel dx="1687" dy="1917" grid="1" gridSize="10" guides="1" tooltips="1" connect="1" arrows="1" fold="1" page="1" pageScale="1" pageWidth="1100" pageHeight="850" math="0" shadow="0">
      <root>
        <mxCell id="0" />
        <mxCell id="1" parent="0" />
        <mxCell id="2KXaWhyb0iDpo99aLcz7-13" value="" style="rounded=0;whiteSpace=wrap;html=1;" vertex="1" parent="1">
          <mxGeometry x="250" y="-770" width="580" height="910" as="geometry" />
        </mxCell>
        <mxCell id="2KXaWhyb0iDpo99aLcz7-14" value="Staffing / Role&lt;br&gt;plan" style="ellipse;whiteSpace=wrap;html=1;fillColor=#dae8fc;strokeColor=#6c8ebf;" vertex="1" parent="1">
          <mxGeometry x="350" y="-696" width="400" height="70" as="geometry" />
        </mxCell>
        <mxCell id="2KXaWhyb0iDpo99aLcz7-15" value="Role relevant Course" style="ellipse;whiteSpace=wrap;html=1;fillColor=#dae8fc;strokeColor=#6c8ebf;" vertex="1" parent="1">
          <mxGeometry x="350" y="-586" width="400" height="70" as="geometry" />
        </mxCell>
        <mxCell id="2KXaWhyb0iDpo99aLcz7-16" value="Course Completion" style="ellipse;whiteSpace=wrap;html=1;fillColor=#d5e8d4;strokeColor=#82b366;" vertex="1" parent="1">
          <mxGeometry x="350" y="-246" width="400" height="70" as="geometry" />
        </mxCell>
        <mxCell id="2KXaWhyb0iDpo99aLcz7-17" value="Course Completion Evaluation" style="ellipse;whiteSpace=wrap;html=1;fillColor=#dae8fc;strokeColor=#6c8ebf;" vertex="1" parent="1">
          <mxGeometry x="350" y="-126" width="400" height="70" as="geometry" />
        </mxCell>
        <mxCell id="2KXaWhyb0iDpo99aLcz7-18" value="Job Application" style="ellipse;whiteSpace=wrap;html=1;fillColor=#d5e8d4;strokeColor=#82b366;" vertex="1" parent="1">
          <mxGeometry x="345" y="-366" width="400" height="70" as="geometry" />
        </mxCell>
        <mxCell id="2KXaWhyb0iDpo99aLcz7-19" value="&lt;div&gt;View Job Description /&lt;/div&gt;&lt;div&gt;Course&amp;nbsp;Enrollment &lt;/div&gt;" style="ellipse;whiteSpace=wrap;html=1;fillColor=#d5e8d4;strokeColor=#82b366;" vertex="1" parent="1">
          <mxGeometry x="351" y="-486" width="400" height="70" as="geometry" />
        </mxCell>
        <mxCell id="2KXaWhyb0iDpo99aLcz7-20" value="Interview Schedule" style="ellipse;whiteSpace=wrap;html=1;fillColor=#dae8fc;strokeColor=#6c8ebf;" vertex="1" parent="1">
          <mxGeometry x="350" y="-7" width="400" height="70" as="geometry" />
        </mxCell>
        <mxCell id="2KXaWhyb0iDpo99aLcz7-30" style="rounded=0;orthogonalLoop=1;jettySize=auto;html=1;entryX=0;entryY=0.5;entryDx=0;entryDy=0;" edge="1" parent="1" source="2KXaWhyb0iDpo99aLcz7-22" target="2KXaWhyb0iDpo99aLcz7-18">
          <mxGeometry relative="1" as="geometry" />
        </mxCell>
        <mxCell id="2KXaWhyb0iDpo99aLcz7-31" style="rounded=0;orthogonalLoop=1;jettySize=auto;html=1;entryX=0;entryY=0.5;entryDx=0;entryDy=0;" edge="1" parent="1" source="2KXaWhyb0iDpo99aLcz7-22" target="2KXaWhyb0iDpo99aLcz7-19">
          <mxGeometry relative="1" as="geometry" />
        </mxCell>
        <mxCell id="2KXaWhyb0iDpo99aLcz7-32" style="rounded=0;orthogonalLoop=1;jettySize=auto;html=1;entryX=0;entryY=0.5;entryDx=0;entryDy=0;" edge="1" parent="1" source="2KXaWhyb0iDpo99aLcz7-22" target="2KXaWhyb0iDpo99aLcz7-16">
          <mxGeometry relative="1" as="geometry" />
        </mxCell>
        <mxCell id="2KXaWhyb0iDpo99aLcz7-22" value="Applicant" style="shape=umlActor;verticalLabelPosition=bottom;verticalAlign=top;html=1;outlineConnect=0;" vertex="1" parent="1">
          <mxGeometry x="70" y="-400" width="30" height="60" as="geometry" />
        </mxCell>
        <mxCell id="2KXaWhyb0iDpo99aLcz7-29" style="rounded=0;orthogonalLoop=1;jettySize=auto;html=1;entryX=1;entryY=0.5;entryDx=0;entryDy=0;" edge="1" parent="1" source="2KXaWhyb0iDpo99aLcz7-23" target="2KXaWhyb0iDpo99aLcz7-15">
          <mxGeometry relative="1" as="geometry" />
        </mxCell>
        <mxCell id="2KXaWhyb0iDpo99aLcz7-23" value="LMT" style="shape=umlActor;verticalLabelPosition=bottom;verticalAlign=top;html=1;outlineConnect=0;" vertex="1" parent="1">
          <mxGeometry x="980" y="-486" width="30" height="60" as="geometry" />
        </mxCell>
        <mxCell id="2KXaWhyb0iDpo99aLcz7-28" style="rounded=0;orthogonalLoop=1;jettySize=auto;html=1;entryX=1;entryY=0.5;entryDx=0;entryDy=0;" edge="1" parent="1" source="2KXaWhyb0iDpo99aLcz7-24" target="2KXaWhyb0iDpo99aLcz7-14">
          <mxGeometry relative="1" as="geometry" />
        </mxCell>
        <mxCell id="2KXaWhyb0iDpo99aLcz7-33" style="rounded=0;orthogonalLoop=1;jettySize=auto;html=1;entryX=1;entryY=0.5;entryDx=0;entryDy=0;" edge="1" parent="1" source="2KXaWhyb0iDpo99aLcz7-24" target="2KXaWhyb0iDpo99aLcz7-17">
          <mxGeometry relative="1" as="geometry" />
        </mxCell>
        <mxCell id="2KXaWhyb0iDpo99aLcz7-34" style="rounded=0;orthogonalLoop=1;jettySize=auto;html=1;entryX=1;entryY=0.5;entryDx=0;entryDy=0;" edge="1" parent="1" source="2KXaWhyb0iDpo99aLcz7-24" target="2KXaWhyb0iDpo99aLcz7-20">
          <mxGeometry relative="1" as="geometry" />
        </mxCell>
        <mxCell id="2KXaWhyb0iDpo99aLcz7-24" value="HXM" style="shape=umlActor;verticalLabelPosition=bottom;verticalAlign=top;html=1;outlineConnect=0;" vertex="1" parent="1">
          <mxGeometry x="980" y="-250" width="30" height="60" as="geometry" />
        </mxCell>
      </root>
    </mxGraphModel>
  </diagram>
</mxfile>
